<svg width="20" height="20" viewBox="0 0 20 20" fill="none" xmlns="http://www.w3.org/2000/svg">
<mask id="mask0_120_1300" style="mask-type:alpha" maskUnits="userSpaceOnUse" x="0" y="0" width="20" height="20">
<rect width="20" height="20" fill="#D9D9D9"/>
</mask>
<g mask="url(#mask0_120_1300)">
<path d="M0.833496 17.5V15.8333H19.1668V17.5H0.833496ZM3.3335 15C2.87516 15 2.4828 14.8368 2.15641 14.5104C1.83002 14.184 1.66683 13.7917 1.66683 13.3333V4.16667C1.66683 3.70833 1.83002 3.31597 2.15641 2.98958C2.4828 2.66319 2.87516 2.5 3.3335 2.5H16.6668C17.1252 2.5 17.5175 2.66319 17.8439 2.98958C18.1703 3.31597 18.3335 3.70833 18.3335 4.16667V13.3333C18.3335 13.7917 18.1703 14.184 17.8439 14.5104C17.5175 14.8368 17.1252 15 16.6668 15H3.3335ZM3.3335 13.3333H16.6668V4.16667H3.3335V13.3333Z" fill="#1D4E53"/>
</g>
</svg>
