<svg width="45" height="44" viewBox="0 0 45 44" fill="none" xmlns="http://www.w3.org/2000/svg">
<ellipse cx="22.3725" cy="21.5283" rx="22.3725" ry="21.5283" fill="#376F79"/>
<path d="M14.2528 33.5283V27.1383H12.1028V26.1583H17.5928V27.1383H15.4328V33.5283H14.2528ZM22.1538 33.6683C21.5271 33.6683 20.9705 33.5117 20.4838 33.1983C20.0038 32.885 19.6271 32.4417 19.3538 31.8683C19.0805 31.2883 18.9438 30.605 18.9438 29.8183C18.9438 29.025 19.0805 28.3483 19.3538 27.7883C19.6271 27.2217 20.0038 26.7883 20.4838 26.4883C20.9705 26.1817 21.5271 26.0283 22.1538 26.0283C22.7871 26.0283 23.3438 26.1817 23.8238 26.4883C24.3038 26.7883 24.6805 27.2217 24.9538 27.7883C25.2271 28.3483 25.3638 29.025 25.3638 29.8183C25.3638 30.605 25.2271 31.2883 24.9538 31.8683C24.6805 32.4417 24.3038 32.885 23.8238 33.1983C23.3438 33.5117 22.7871 33.6683 22.1538 33.6683ZM22.1538 32.6483C22.5605 32.6483 22.9138 32.5317 23.2138 32.2983C23.5205 32.065 23.7571 31.7383 23.9238 31.3183C24.0905 30.8917 24.1738 30.3917 24.1738 29.8183C24.1738 29.245 24.0905 28.7517 23.9238 28.3383C23.7571 27.9183 23.5205 27.5983 23.2138 27.3783C22.9138 27.1517 22.5605 27.0383 22.1538 27.0383C21.7471 27.0383 21.3905 27.1517 21.0838 27.3783C20.7838 27.5983 20.5505 27.9183 20.3838 28.3383C20.2238 28.7517 20.1438 29.245 20.1438 29.8183C20.1438 30.3917 20.2238 30.8917 20.3838 31.3183C20.5505 31.7383 20.7838 32.065 21.0838 32.2983C21.3905 32.5317 21.7471 32.6483 22.1538 32.6483ZM27.6929 33.5283V26.1583H29.9229C30.4762 26.1583 30.9629 26.2317 31.3829 26.3783C31.8029 26.5183 32.1329 26.7517 32.3729 27.0783C32.6195 27.3983 32.7429 27.8383 32.7429 28.3983C32.7429 28.9317 32.6229 29.3717 32.3829 29.7183C32.1429 30.0583 31.8129 30.315 31.3929 30.4883C30.9795 30.655 30.5029 30.7383 29.9629 30.7383H28.8529V33.5283H27.6929ZM28.8529 29.7983H29.8629C30.4429 29.7983 30.8762 29.685 31.1629 29.4583C31.4495 29.2317 31.5929 28.8783 31.5929 28.3983C31.5929 27.905 31.4429 27.565 31.1429 27.3783C30.8429 27.1917 30.3995 27.0983 29.8129 27.0983H28.8529V29.7983Z" fill="white"/>
<path d="M21.6928 7.63207C22.0923 7.08581 22.9077 7.0858 23.3072 7.63207L29.5642 16.188C30.0474 16.8487 29.5756 17.7783 28.7571 17.7783H16.2429C15.4245 17.7783 14.9526 16.8487 15.4358 16.188L21.6928 7.63207Z" fill="white"/>
</svg>
